ffmpeg started on 2016-12-02 at 12:38:18
Report written to "Output/x264/results/ffmpeg/old_town_cross_2160p50veryslow1500k.log"
Command line:
Tools/ffmpeg/ffmpeg -benchmark -y -i Input/y4m/old_town_cross_2160p50.y4m -c:v libx264 -preset veryslow -b:v 1500k -an Output/x264/encoded/old_town_cross_2160p50veryslow1500k.mkv
ffmpeg version N-82227-gdb23fde Copyright (c) 2000-2016 the FFmpeg developers
  built with gcc 5.4.0 (Ubuntu 5.4.0-6ubuntu1~16.04.2) 20160609
  configuration: --prefix=/home/jaroslav/ffmpeg_build --pkg-config-flags=--static --extra-cflags=-I/home/jaroslav/ffmpeg_build/include --extra-ldflags=-L/home/jaroslav/ffmpeg_build/lib --bindir=/home/jaroslav/bin --enable-gpl --enable-libass --enable-libfdk-aac --enable-libfreetype --enable-libmp3lame --enable-libopus --enable-libtheora --enable-libvorbis --enable-libvpx --enable-libx264 --enable-libx265 --enable-nvenc --enable-libmfx --enable-libxvid --enable-libgsm --enable-libopencore-amrnb --enable-version3 --enable-nonfree
  libavutil      55. 35.100 / 55. 35.100
  libavcodec     57. 66.101 / 57. 66.101
  libavformat    57. 57.100 / 57. 57.100
  libavdevice    57.  2.100 / 57.  2.100
  libavfilter     6. 66.100 /  6. 66.100
  libswscale      4.  3.100 /  4.  3.100
  libswresample   2.  4.100 /  2.  4.100
  libpostproc    54.  2.100 / 54.  2.100
Input #0, yuv4mpegpipe, from 'Input/y4m/old_town_cross_2160p50.y4m':
  Duration: 00:00:10.00, start: 0.000000, bitrate: 4976642 kb/s
    Stream #0:0: Video: rawvideo (I420 / 0x30323449), yuv420p(progressive), 3840x2160, SAR 1:1 DAR 16:9, 50 fps, 50 tbr, 50 tbn, 50 tbc
[libx264 @ 0x288c120] using SAR=1/1
[libx264 @ 0x288c120] DPB size (16 frames, 518400 mbs) > level limit (5 frames, 184320 mbs)
[libx264 @ 0x288c120] using cpu capabilities: MMX2 SSE2Fast SSSE3 SSE4.2 AVX FMA3 AVX2 LZCNT BMI2
[libx264 @ 0x288c120] profile High, level 5.2
[libx264 @ 0x288c120] 264 - core 148 - H.264/MPEG-4 AVC codec - Copyleft 2003-2016 - http://www.videolan.org/x264.html - options: cabac=1 ref=16 deblock=1:0:0 analyse=0x3:0x133 me=umh subme=10 psy=1 psy_rd=1.00:0.00 mixed_ref=1 me_range=24 chroma_me=1 trellis=2 8x8dct=1 cqm=0 deadzone=21,11 fast_pskip=1 chroma_qp_offset=-2 threads=6 lookahead_threads=1 sliced_threads=0 nr=0 decimate=1 interlaced=0 bluray_compat=0 constrained_intra=0 bframes=8 b_pyramid=2 b_adapt=2 b_bias=0 direct=3 weightb=1 open_gop=0 weightp=2 keyint=250 keyint_min=25 scenecut=40 intra_refresh=0 rc_lookahead=60 rc=abr mbtree=1 bitrate=1500 ratetol=1.0 qcomp=0.60 qpmin=0 qpmax=69 qpstep=4 ip_ratio=1.40 aq=1:1.00
Output #0, matroska, to 'Output/x264/encoded/old_town_cross_2160p50veryslow1500k.mkv':
  Metadata:
    encoder         : Lavf57.57.100
    Stream #0:0: Video: h264 (libx264) (H264 / 0x34363248), yuv420p, 3840x2160 [SAR 1:1 DAR 16:9], q=-1--1, 1500 kb/s, 50 fps, 1k tbn, 50 tbc
    Metadata:
      encoder         : Lavc57.66.101 libx264
    Side data:
      cpb: bitrate max/min/avg: 0/0/1500000 buffer size: 0 vbv_delay: -1
Stream mapping:
  Stream #0:0 -> #0:0 (rawvideo (native) -> h264 (libx264))
Press [q] to stop, [?] for help
frame=   60 fps=0.0 q=0.0 size=       0kB time=00:00:00.00 bitrate=N/A speed=   0x    frame=   72 fps=8.0 q=0.0 size=       0kB time=00:00:00.00 bitrate=N/A speed=   0x    frame=   77 fps=8.0 q=50.0 size=       1kB time=-00:00:00.01 bitrate=N/A speed=N/A    frame=   82 fps=6.9 q=54.0 size=       1kB time=00:00:00.08 bitrate=  72.7kbits/s speed=0.00678x    frame=   88 fps=6.9 q=56.0 size=       1kB time=00:00:00.20 bitrate=  29.3kbits/s speed=0.0158x    frame=   91 fps=6.1 q=57.0 size=       1kB time=00:00:00.26 bitrate=  22.6kbits/s speed=0.0176x    frame=   97 fps=6.1 q=56.0 size=       1kB time=00:00:00.38 bitrate=  15.5kbits/s speed=0.0239x    frame=  100 fps=5.7 q=54.0 size=       1kB time=00:00:00.44 bitrate=  13.4kbits/s speed=0.0249x    frame=  106 fps=5.5 q=54.0 size=       1kB time=00:00:00.56 bitrate=  10.5kbits/s speed=0.0292x    frame=  108 fps=5.3 q=53.0 size=       1kB time=00:00:00.60 bitrate=   9.8kbits/s speed=0.0296x    frame=  113 fps=5.4 q=53.0 size=       1kB time=00:00:00.70 bitrate=   8.4kbits/s speed=0.0336x    frame=  114 fps=5.2 q=53.0 size=       1kB time=00:00:00.72 bitrate=   8.2kbits/s speed=0.0326x    frame=  117 fps=5.0 q=52.0 size=       1kB time=00:00:00.78 bitrate=   7.5kbits/s speed=0.0335x    frame=  122 fps=5.0 q=52.0 size=       1kB time=00:00:00.88 bitrate=   6.7kbits/s speed=0.0365x    frame=  123 fps=4.8 q=52.0 size=       1kB time=00:00:00.90 bitrate=   6.5kbits/s speed=0.0352x    frame=  126 fps=4.8 q=52.0 size=       1kB time=00:00:00.96 bitrate=   6.1kbits/s speed=0.0363x    frame=  129 fps=4.8 q=52.0 size=       1kB time=00:00:01.02 bitrate=   5.8kbits/s speed=0.0378x    frame=  132 fps=4.5 q=52.0 size=       1kB time=00:00:01.08 bitrate=   5.4kbits/s speed=0.037x    frame=  134 fps=4.5 q=52.0 size=       1kB time=00:00:01.12 bitrate=   5.3kbits/s speed=0.0376x    frame=  138 fps=4.4 q=52.0 size=       1kB time=00:00:01.20 bitrate=   4.9kbits/s speed=0.0386x    frame=  140 fps=4.4 q=52.0 size=       1kB time=00:00:01.24 bitrate=   4.7kbits/s speed=0.0386x    frame=  141 fps=4.3 q=52.0 size=       1kB time=00:00:01.26 bitrate=   4.7kbits/s speed=0.0385x    frame=  145 fps=4.3 q=52.0 size=       1kB time=00:00:01.34 bitrate=   4.4kbits/s speed=0.0398x    frame=  146 fps=4.2 q=52.0 size=       1kB time=00:00:01.36 bitrate=   4.3kbits/s speed=0.0395x    frame=  147 fps=4.2 q=52.0 size=       1kB time=00:00:01.38 bitrate=   4.3kbits/s speed=0.0392x    frame=  150 fps=4.2 q=52.0 size=       1kB time=00:00:01.44 bitrate=   4.1kbits/s speed=0.04x    frame=  152 fps=4.1 q=51.0 size=       1kB time=00:00:01.48 bitrate=   4.0kbits/s speed=0.0401x    frame=  153 fps=4.1 q=51.0 size=       1kB time=00:00:01.50 bitrate=   3.9kbits/s speed=0.0399x    frame=  155 fps=4.0 q=51.0 size=       1kB time=00:00:01.54 bitrate=   3.8kbits/s speed=0.0402x    frame=  158 fps=4.0 q=51.0 size=       1kB time=00:00:01.60 bitrate=   3.7kbits/s speed=0.0403x    frame=  161 fps=3.9 q=51.0 size=       1kB time=00:00:01.66 bitrate=   3.5kbits/s speed=0.0405x    frame=  165 fps=3.9 q=51.0 size=       1kB time=00:00:01.74 bitrate=   3.4kbits/s speed=0.0414x    frame=  167 fps=3.8 q=51.0 size=       1kB time=00:00:01.78 bitrate=   3.3kbits/s speed=0.041x    frame=  171 fps=3.9 q=51.0 size=       1kB time=00:00:01.86 bitrate=   3.2kbits/s speed=0.0422x    frame=  173 fps=3.8 q=51.0 size=       1kB time=00:00:01.90 bitrate=   3.1kbits/s speed=0.0419x    frame=  174 fps=3.7 q=51.0 size=       1kB time=00:00:01.92 bitrate=   3.1kbits/s speed=0.0413x    frame=  177 fps=3.8 q=51.0 size=       1kB time=00:00:01.98 bitrate=   3.0kbits/s speed=0.0421x    frame=  179 fps=3.7 q=51.0 size=       1kB time=00:00:02.02 bitrate=   2.9kbits/s speed=0.0422x    frame=  180 fps=3.7 q=51.0 size=       1kB time=00:00:02.04 bitrate=   2.9kbits/s speed=0.0418x    frame=  185 fps=3.7 q=51.0 size=       1kB time=00:00:02.14 bitrate=   2.8kbits/s speed=0.0423x    frame=  187 fps=3.6 q=51.0 size=       1kB time=00:00:02.18 bitrate=   2.7kbits/s speed=0.0424x    frame=  191 fps=3.6 q=51.0 size=       1kB time=00:00:02.26 bitrate=   2.6kbits/s speed=0.0428x    frame=  194 fps=3.6 q=51.0 size=       1kB time=00:00:02.32 bitrate=   2.5kbits/s speed=0.0425x    frame=  197 fps=3.6 q=51.0 size=       1kB time=00:00:02.38 bitrate=   2.5kbits/s speed=0.0432x    frame=  200 fps=3.5 q=51.0 size=       1kB time=00:00:02.44 bitrate=   2.4kbits/s speed=0.043x    frame=  203 fps=3.5 q=51.0 size=       1kB time=00:00:02.50 bitrate=   2.4kbits/s speed=0.0434x    frame=  206 fps=3.5 q=51.0 size=       1kB time=00:00:02.56 bitrate=   2.3kbits/s speed=0.0437x    frame=  207 fps=3.5 q=51.0 size=       1kB time=00:00:02.58 bitrate=   2.3kbits/s speed=0.0436x    frame=  209 fps=3.5 q=51.0 size=       1kB time=00:00:02.62 bitrate=   2.2kbits/s speed=0.0439x    frame=  210 fps=3.5 q=51.0 size=       1kB time=00:00:02.64 bitrate=   2.2kbits/s speed=0.0434x    frame=  213 fps=3.4 q=51.0 size=       1kB time=00:00:02.70 bitrate=   2.2kbits/s speed=0.0436x    frame=  215 fps=3.4 q=51.0 size=       1kB time=00:00:02.74 bitrate=   2.1kbits/s speed=0.0439x    frame=  216 fps=3.4 q=51.0 size=       1kB time=00:00:02.76 bitrate=   2.1kbits/s speed=0.0437x    frame=  219 fps=3.4 q=51.0 size=       1kB time=00:00:02.82 bitrate=   2.1kbits/s speed=0.0436x    frame=  223 fps=3.4 q=51.0 size=       1kB time=00:00:02.90 bitrate=   2.0kbits/s speed=0.0443x    frame=  225 fps=3.4 q=51.0 size=       1kB time=00:00:02.94 bitrate=   2.0kbits/s speed=0.0439x    frame=  229 fps=3.4 q=51.0 size=       1kB time=00:00:03.02 bitrate=   1.9kbits/s speed=0.0446x    frame=  230 fps=3.4 q=51.0 size=       1kB time=00:00:03.04 bitrate=   1.9kbits/s speed=0.0445x    frame=  231 fps=3.4 q=51.0 size=       1kB time=00:00:03.06 bitrate=   1.9kbits/s speed=0.0444x    frame=  234 fps=3.3 q=51.0 size=       1kB time=00:00:03.12 bitrate=   1.9kbits/s speed=0.0447x    frame=  236 fps=3.4 q=51.0 size=       1kB time=00:00:03.16 bitrate=   1.9kbits/s speed=0.0449x    frame=  237 fps=3.3 q=51.0 size=       1kB time=00:00:03.18 bitrate=   1.9kbits/s speed=0.0447x    frame=  240 fps=3.3 q=51.0 size=       1kB time=00:00:03.24 bitrate=   1.8kbits/s speed=0.0445x    frame=  243 fps=3.3 q=51.0 size=       1kB time=00:00:03.30 bitrate=   1.8kbits/s speed=0.045x    frame=  246 fps=3.3 q=51.0 size=       1kB time=00:00:03.36 bitrate=   1.8kbits/s speed=0.045x    frame=  249 fps=3.3 q=51.0 size=       1kB time=00:00:03.42 bitrate=   1.7kbits/s speed=0.0453x    frame=  252 fps=3.3 q=51.0 size=       1kB time=00:00:03.48 bitrate=   1.7kbits/s speed=0.0451x    frame=  258 fps=3.3 q=51.0 size=       1kB time=00:00:03.60 bitrate=   1.6kbits/s speed=0.0455x    frame=  261 fps=3.2 q=51.0 size=       1kB time=00:00:03.66 bitrate=   1.6kbits/s speed=0.0455x    frame=  264 fps=3.3 q=51.0 size=       1kB time=00:00:03.72 bitrate=   1.6kbits/s speed=0.0459x    frame=  265 fps=3.2 q=51.0 size=       1kB time=00:00:03.74 bitrate=   1.6kbits/s speed=0.0458x    frame=  267 fps=3.2 q=51.0 size=       1kB time=00:00:03.78 bitrate=   1.6kbits/s speed=0.0455x    frame=  270 fps=3.2 q=51.0 size=       1kB time=00:00:03.84 bitrate=   1.5kbits/s speed=0.0458x    frame=  273 fps=3.2 q=51.0 size=       1kB time=00:00:03.90 bitrate=   1.5kbits/s speed=0.0456x    frame=  277 fps=3.2 q=51.0 size=       1kB time=00:00:03.98 bitrate=   1.5kbits/s speed=0.0461x    frame=  279 fps=3.2 q=51.0 size=       1kB time=00:00:04.02 bitrate=   1.5kbits/s speed=0.0457x    frame=  282 fps=3.2 q=51.0 size=       1kB time=00:00:04.08 bitrate=   1.4kbits/s speed=0.0462x    frame=  285 fps=3.2 q=51.0 size=       1kB time=00:00:04.14 bitrate=   1.4kbits/s speed=0.046x    frame=  288 fps=3.2 q=51.0 size=       1kB time=00:00:04.20 bitrate=   1.4kbits/s speed=0.0461x    frame=  290 fps=3.2 q=51.0 size=       1kB time=00:00:04.24 bitrate=   1.4kbits/s speed=0.0463x    frame=  291 fps=3.1 q=51.0 size=       1kB time=00:00:04.26 bitrate=   1.4kbits/s speed=0.046x    frame=  294 fps=3.2 q=51.0 size=       1kB time=00:00:04.32 bitrate=   1.4kbits/s speed=0.0463x    frame=  296 fps=3.1 q=51.0 size=       1kB time=00:00:04.36 bitrate=   1.4kbits/s speed=0.0462x    frame=  297 fps=3.1 q=51.0 size=       1kB time=00:00:04.38 bitrate=   1.3kbits/s speed=0.046x    frame=  301 fps=3.1 q=51.0 size=       1kB time=00:00:04.46 bitrate=   1.3kbits/s speed=0.0465x    frame=  302 fps=3.1 q=51.0 size=       1kB time=00:00:04.48 bitrate=   1.3kbits/s speed=0.0463x    frame=  304 fps=3.1 q=51.0 size=       1kB time=00:00:04.52 bitrate=   1.3kbits/s speed=0.0461x    frame=  308 fps=3.1 q=51.0 size=       1kB time=00:00:04.60 bitrate=   1.3kbits/s speed=0.0463x    frame=  311 fps=3.1 q=51.0 size=       1kB time=00:00:04.66 bitrate=   1.3kbits/s speed=0.0463x    frame=  313 fps=3.0 q=51.0 size=       1kB time=00:00:04.70 bitrate=   1.3kbits/s speed=0.0454x    frame=  318 fps=3.0 q=51.0 size=       1kB time=00:00:04.80 bitrate=   1.2kbits/s speed=0.046x    frame=  319 fps=3.0 q=51.0 size=       1kB time=00:00:04.82 bitrate=   1.2kbits/s speed=0.0457x    frame=  325 fps=3.0 q=51.0 size=     874kB time=00:00:04.94 bitrate=1449.1kbits/s speed=0.0461x    frame=  331 fps=3.0 q=51.0 size=     874kB time=00:00:05.06 bitrate=1414.8kbits/s speed=0.0465x    frame=  337 fps=3.1 q=51.0 size=     874kB time=00:00:05.18 bitrate=1382.0kbits/s speed=0.0472x    frame=  340 fps=3.0 q=51.0 size=     874kB time=00:00:05.24 bitrate=1366.2kbits/s speed=0.0469x    frame=  345 fps=3.1 q=51.0 size=     874kB time=00:00:05.34 bitrate=1340.6kbits/s speed=0.0475x    frame=  346 fps=3.1 q=51.0 size=     874kB time=00:00:05.36 bitrate=1335.6kbits/s speed=0.0475x    frame=  349 fps=3.0 q=51.0 size=     874kB time=00:00:05.42 bitrate=1320.8kbits/s speed=0.0473x    frame=  354 fps=3.1 q=51.0 size=     874kB time=00:00:05.52 bitrate=1296.9kbits/s speed=0.0479x    frame=  355 fps=3.1 q=51.0 size=     874kB time=00:00:05.54 bitrate=1292.2kbits/s speed=0.0477x    frame=  358 fps=3.0 q=51.0 size=     874kB time=00:00:05.60 bitrate=1278.4kbits/s speed=0.0476x    frame=  363 fps=3.1 q=51.0 size=     874kB time=00:00:05.70 bitrate=1255.9kbits/s speed=0.0481x    frame=  364 fps=3.1 q=51.0 size=     874kB time=00:00:05.72 bitrate=1251.5kbits/s speed=0.048x    frame=  365 fps=3.0 q=51.0 size=     874kB time=00:00:05.74 bitrate=1247.2kbits/s speed=0.0479x    frame=  367 fps=3.0 q=51.0 size=     874kB time=00:00:05.78 bitrate=1238.6kbits/s speed=0.0479x    frame=  372 fps=3.0 q=51.0 size=     874kB time=00:00:05.88 bitrate=1217.5kbits/s speed=0.0481x    frame=  377 fps=3.1 q=51.0 size=     874kB time=00:00:05.98 bitrate=1197.1kbits/s speed=0.0484x    frame=  378 fps=3.0 q=51.0 size=     874kB time=00:00:06.00 bitrate=1193.1kbits/s speed=0.048x    frame=  381 fps=3.0 q=51.0 size=     874kB time=00:00:06.06 bitrate=1181.3kbits/s speed=0.0482x    frame=  383 fps=3.0 q=51.0 size=     874kB time=00:00:06.10 bitrate=1173.6kbits/s speed=0.0483x    frame=  384 fps=3.0 q=51.0 size=     874kB time=00:00:06.12 bitrate=1169.8kbits/s speed=0.0479x    frame=  389 fps=3.0 q=51.0 size=     874kB time=00:00:06.22 bitrate=1151.0kbits/s speed=0.0485x    frame=  390 fps=3.0 q=51.0 size=     874kB time=00:00:06.24 bitrate=1147.3kbits/s speed=0.0481x    frame=  392 fps=3.0 q=51.0 size=     874kB time=00:00:06.28 bitrate=1140.0kbits/s speed=0.048x    frame=  396 fps=3.0 q=51.0 size=     874kB time=00:00:06.36 bitrate=1125.6kbits/s speed=0.0482x    frame=  398 fps=3.0 q=51.0 size=     874kB time=00:00:06.40 bitrate=1118.6kbits/s speed=0.0481x    frame=  401 fps=3.0 q=51.0 size=     874kB time=00:00:06.46 bitrate=1108.2kbits/s speed=0.0482x    frame=  402 fps=3.0 q=51.0 size=     874kB time=00:00:06.48 bitrate=1104.8kbits/s speed=0.0481x    frame=  404 fps=3.0 q=51.0 size=     874kB time=00:00:06.52 bitrate=1098.0kbits/s speed=0.0482x    frame=  405 fps=3.0 q=51.0 size=     874kB time=00:00:06.54 bitrate=1094.6kbits/s speed=0.0481x    frame=  407 fps=3.0 q=51.0 size=     874kB time=00:00:06.58 bitrate=1088.0kbits/s speed=0.0482x    frame=  408 fps=3.0 q=51.0 size=     874kB time=00:00:06.60 bitrate=1084.7kbits/s speed=0.0481x    frame=  410 fps=3.0 q=51.0 size=     874kB time=00:00:06.64 bitrate=1078.2kbits/s speed=0.048x    frame=  413 fps=3.0 q=51.0 size=     874kB time=00:00:06.70 bitrate=1068.5kbits/s speed=0.0482x    frame=  416 fps=3.0 q=51.0 size=     874kB time=00:00:06.76 bitrate=1059.0kbits/s speed=0.048x    frame=  419 fps=2.9 q=51.0 size=     874kB time=00:00:06.82 bitrate=1049.7kbits/s speed=0.048x    frame=  422 fps=3.0 q=51.0 size=     874kB time=00:00:06.88 bitrate=1040.6kbits/s speed=0.0481x    frame=  424 fps=3.0 q=51.0 size=     874kB time=00:00:06.92 bitrate=1034.5kbits/s speed=0.0482x    frame=  425 fps=2.9 q=51.0 size=     874kB time=00:00:06.94 bitrate=1031.6kbits/s speed=0.0481x    frame=  426 fps=2.9 q=51.0 size=     874kB time=00:00:06.96 bitrate=1028.6kbits/s speed=0.0479x    frame=  429 fps=2.9 q=51.0 size=     874kB time=00:00:07.02 bitrate=1019.8kbits/s speed=0.048x    frame=  432 fps=2.9 q=51.0 size=     874kB time=00:00:07.08 bitrate=1011.2kbits/s speed=0.0478x    frame=  435 fps=2.9 q=51.0 size=     874kB time=00:00:07.14 bitrate=1002.7kbits/s speed=0.048x    frame=  437 fps=2.9 q=51.0 size=     874kB time=00:00:07.18 bitrate= 997.1kbits/s speed=0.048x    frame=  438 fps=2.9 q=51.0 size=     874kB time=00:00:07.20 bitrate= 994.3kbits/s speed=0.0477x    frame=  443 fps=2.9 q=51.0 size=     874kB time=00:00:07.30 bitrate= 980.7kbits/s speed=0.048x    frame=  444 fps=2.9 q=51.0 size=     874kB time=00:00:07.32 bitrate= 978.0kbits/s speed=0.0478x    frame=  446 fps=2.9 q=51.0 size=     874kB time=00:00:07.36 bitrate= 972.7kbits/s speed=0.0478x    frame=  450 fps=2.9 q=51.0 size=     874kB time=00:00:07.44 bitrate= 962.2kbits/s speed=0.0479x    frame=  453 fps=2.9 q=51.0 size=     874kB time=00:00:07.50 bitrate= 954.6kbits/s speed=0.0478x    frame=  458 fps=2.9 q=51.0 size=     874kB time=00:00:07.60 bitrate= 942.0kbits/s speed=0.0481x    frame=  459 fps=2.9 q=51.0 size=     874kB time=00:00:07.62 bitrate= 939.5kbits/s speed=0.0479x    frame=  460 fps=2.9 q=51.0 size=     874kB time=00:00:07.64 bitrate= 937.1kbits/s speed=0.0477x    frame=  464 fps=2.9 q=51.0 size=     874kB time=00:00:07.72 bitrate= 927.4kbits/s speed=0.048x    frame=  465 fps=2.9 q=51.0 size=     874kB time=00:00:07.74 bitrate= 925.0kbits/s speed=0.0479x    frame=  466 fps=2.9 q=52.0 size=     874kB time=00:00:07.76 bitrate= 922.6kbits/s speed=0.0477x    frame=  469 fps=2.9 q=52.0 size=     874kB time=00:00:07.82 bitrate= 915.5kbits/s speed=0.0479x    frame=  470 fps=2.9 q=52.0 size=     874kB time=00:00:07.84 bitrate= 913.2kbits/s speed=0.0479x    frame=  473 fps=2.9 q=52.0 size=     874kB time=00:00:07.90 bitrate= 906.2kbits/s speed=0.0479x    frame=  475 fps=2.9 q=52.0 size=     874kB time=00:00:07.94 bitrate= 901.7kbits/s speed=0.0479x    frame=  477 fps=2.9 q=52.0 size=     874kB time=00:00:07.98 bitrate= 897.1kbits/s speed=0.0479x    frame=  480 fps=2.8 q=52.0 size=     874kB time=00:00:08.04 bitrate= 890.4kbits/s speed=0.0477x    frame=  483 fps=2.8 q=52.0 size=     874kB time=00:00:08.10 bitrate= 883.9kbits/s speed=0.0478x    frame=  486 fps=2.8 q=52.0 size=     874kB time=00:00:08.16 bitrate= 877.4kbits/s speed=0.0477x    frame=  489 fps=2.8 q=52.0 size=     874kB time=00:00:08.22 bitrate= 871.0kbits/s speed=0.0479x    frame=  490 fps=2.8 q=52.0 size=     874kB time=00:00:08.24 bitrate= 868.8kbits/s speed=0.0478x    frame=  492 fps=2.8 q=52.0 size=     874kB time=00:00:08.28 bitrate= 864.6kbits/s speed=0.0477x    frame=  496 fps=2.8 q=52.0 size=     874kB time=00:00:08.36 bitrate= 856.4kbits/s speed=0.0477x    frame=  498 fps=2.8 q=52.0 size=     874kB time=00:00:08.40 bitrate= 852.3kbits/s speed=0.0478x    frame=  500 fps=2.4 q=-1.0 Lsize=    1910kB time=00:00:09.94 bitrate=1574.2kbits/s speed=0.0482x    
video:1906kB audio:0kB subtitle:0kB other streams:0kB global headers:0kB muxing overhead: 0.223699%
bench: utime=755.376s
bench: maxrss=3674088kB
[libx264 @ 0x288c120] frame I:3     Avg QP:46.87  size: 41759
[libx264 @ 0x288c120] frame P:63    Avg QP:48.98  size:  7726
[libx264 @ 0x288c120] frame B:434   Avg QP:49.84  size:  3085
[libx264 @ 0x288c120] consecutive B-frames:  0.8%  0.0%  0.0%  1.6%  4.0%  3.6% 11.2% 17.6% 61.2%
[libx264 @ 0x288c120] mb I  I16..4: 27.9% 71.8%  0.2%
[libx264 @ 0x288c120] mb P  I16..4:  0.7%  1.0%  0.0%  P16..4: 11.7%  0.1%  0.9%  0.0%  0.0%    skip:85.5%
[libx264 @ 0x288c120] mb B  I16..4:  0.0%  0.0%  0.0%  B16..8: 13.9%  0.0%  0.0%  direct: 0.0%  skip:86.1%  L0:35.8% L1:64.2% BI: 0.0%
[libx264 @ 0x288c120] final ratefactor: 43.84
[libx264 @ 0x288c120] 8x8 transform intra:68.1% inter:98.8%
[libx264 @ 0x288c120] direct mvs  spatial:99.1% temporal:0.9%
[libx264 @ 0x288c120] coded y,uvDC,uvAC intra: 7.1% 11.0% 0.5% inter: 0.0% 0.1% 0.0%
[libx264 @ 0x288c120] i16 v,h,dc,p: 32% 45%  3% 20%
[libx264 @ 0x288c120] i8 v,h,dc,ddl,ddr,vr,hd,vl,hu: 13%  3% 60%  3%  5%  3%  6%  3%  5%
[libx264 @ 0x288c120] i4 v,h,dc,ddl,ddr,vr,hd,vl,hu:  5%  4%  3% 12% 13% 11% 18% 10% 24%
[libx264 @ 0x288c120] i8c dc,h,v,p: 46% 49%  4%  1%
[libx264 @ 0x288c120] Weighted P-Frames: Y:3.2% UV:1.6%
[libx264 @ 0x288c120] ref P L0: 72.5%  0.7% 11.9%  3.3%  2.5%  2.3%  1.9%  0.7%  0.6%  0.6%  0.6%  0.5%  0.5%  0.5%  0.5%  0.3%
[libx264 @ 0x288c120] ref B L0: 95.4%  2.4%  1.2%  0.3%  0.2%  0.2%  0.1%  0.1%  0.0%  0.0%  0.0%  0.0%  0.0%  0.0%  0.0%
[libx264 @ 0x288c120] ref B L1: 98.3%  1.7%
[libx264 @ 0x288c120] kb/s:1560.83
